<svg xmlns="http://www.w3.org/2000/svg" width="114" height="128" fill-rule="evenodd" clip-rule="evenodd" image-rendering="optimizeQuality" shape-rendering="geometricPrecision" text-rendering="geometricPrecision" viewBox="0 0 222889 250708"><path fill="#ffc42e" d="M122479 3039l89377 51603c7016,4052 11033,11009 11033,19111l0 103202c0,8102 -4017,15059 -11033,19110l-89377 51604c-7018,4052 -15051,4052 -22069,0l-89377 -51604c-7017,-4051 -11033,-11008 -11033,-19110l0 -103202c0,-8102 4016,-15059 11033,-19111l89377 -51603c7018,-4052 15051,-4052 22069,0z"/><path fill="#ff576b" d="M78495 74929c16980,0 30981,12754 32949,29204 1969,-16450 15969,-29204 32950,-29204 32900,0 43573,38770 20455,64375l-53405 51166 -53405 -51166c-23117,-25605 -12445,-64375 20456,-64375z"/><path fill="#e64e60" d="M132010 80418c32901,0 43574,36397 20456,60435l-44253 46521 3231 3096 53405 -51166c23118,-25605 12445,-64375 -20455,-64375 -7182,0 -13830,2281 -19261,6159 2218,-439 4519,-670 6877,-670z"/><path fill="#fff" d="M108874 18869l5142 0 0 23994 -5142 0 0 -23994zm63082 18825l4159 3023 -14104 19411 -4159 -3022 14104 -19412zm7239 21747l3484 3782 -8823 8129 -3483 -3782 8822 -8129zm32729 30562l1588 4891 -22819 7413 -1589 -4889 22820 -7415zm-6925 21849l595 5108 -11916 1390 -595 -5107 11916 -1391zm8513 43963l-1589 4890 -22819 -7415 1589 -4889 22819 7414zm-18445 13606l-2520 4482 -10457 -5879 2520 -4482 10457 5879zm-18952 40571l-4160 3022 -14103 -19412 4159 -3022 14104 19412zm-22921 165l-4672 2144 -5005 -10902 4673 -2145 5004 10903zm-39179 21683l-5142 -1 1 -23994 5141 0 0 23995zm-18640 -13339l-5041 -1012 2360 -11762 5041 1012 -2360 11762zm-44442 -5487l-4159 -3023 14104 -19411 4159 3022 -14104 19412zm-7240 -21747l-3483 -3782 8823 -8129 3483 3782 -8823 8129zm-32728 -30562l-1589 -4891 22820 -7414 1588 4890 -22819 7415zm6925 -21849l-595 -5108 11916 -1390 595 5107 -11916 1391zm-8514 -43963l1589 -4890 22820 7415 -1589 4889 -22820 -7414zm18446 -13606l2520 -4482 10457 5880 -2520 4481 -10457 -5879zm18952 -40570l4160 -3023 14103 19412 -4159 3022 -14104 -19411zm80740 -8510l5041 1011 -2360 11763 -5041 -1012 2360 -11762zm-57820 8344l4673 -2145 5005 10903 -4674 2145 -5004 -10903z"/></svg>